<svg xmlns="http://www.w3.org/2000/svg" width="230" height="230" viewBox="0 0 230 230" fill="none"><rect x="1" y="1" width="228" height="228" rx="114" stroke="#FB6514" stroke-width="2"/><mask id="mask0_30_15227" style="mask-type:alpha" maskUnits="userSpaceOnUse" x="15" y="15" width="200" height="200"><rect x="15" y="15" width="200" height="200" rx="100" fill="#D9D9D9"/></mask><g mask="url(#mask0_30_15227)"/><circle opacity="0.2" cx="115" cy="115" r="100" fill="#FB6514"/><circle cx="115" cy="115" r="69.7674" fill="white"/><path d="M107.81 68.8567C107.345 69.2249 107.345 69.283 107.248 73.9342L107.151 78.6435L106.085 78.8954C102.868 79.69 98.6242 81.4342 95.911 83.0815L94.7482 83.7985L91.5118 80.5621C88.5273 77.5776 88.2172 77.3257 87.5777 77.3257C86.9188 77.3257 86.5699 77.6357 82.1126 82.1125C77.6358 86.5699 77.3257 86.9187 77.3257 87.5776C77.3257 88.2171 77.5777 88.5272 80.5622 91.5117L83.7986 94.7482L83.0815 95.9109C81.4343 98.6241 79.6901 102.868 78.8955 106.085L78.6436 107.151L73.9343 107.248C69.2831 107.345 69.225 107.345 68.8567 107.81C68.5079 108.237 68.4885 108.663 68.4885 115C68.4885 121.337 68.5079 121.764 68.8567 122.19C69.225 122.655 69.2831 122.655 73.9343 122.752L78.6436 122.849L78.8955 123.915C79.6901 127.132 81.4343 131.376 83.0815 134.089L83.7986 135.252L80.5622 138.488C77.5777 141.473 77.3257 141.783 77.3257 142.423C77.3257 143.062 77.6358 143.43 81.88 147.675C84.3606 150.175 86.6668 152.364 86.9575 152.519C87.2676 152.694 87.6746 152.752 87.9265 152.694C88.1591 152.616 89.787 151.124 91.5505 149.38L94.7482 146.202L95.8916 146.899C98.7017 148.585 102.229 150.058 105.465 150.93L107.151 151.376L107.248 156.066C107.345 160.717 107.345 160.775 107.81 161.144C108.237 161.492 108.663 161.512 115 161.512C121.337 161.512 121.764 161.492 122.19 161.144C122.655 160.775 122.655 160.717 122.752 156.066L122.849 151.376L124.535 150.93C127.771 150.058 131.299 148.585 134.109 146.899L135.252 146.202L142.035 152.965C149.361 160.271 149.671 160.504 152.093 160.95C157.19 161.899 161.899 157.19 160.95 152.093C160.504 149.671 160.271 149.361 152.965 142.035L146.202 135.252L146.899 134.109C148.585 131.299 150.058 127.771 150.93 124.535L151.376 122.849L156.066 122.752C160.717 122.655 160.775 122.655 161.144 122.19C161.492 121.764 161.512 121.337 161.512 115C161.512 108.663 161.492 108.237 161.144 107.81C160.775 107.345 160.717 107.345 156.066 107.248L151.357 107.151L151.105 106.085C150.31 102.868 148.566 98.6241 146.919 95.9109L146.202 94.7482L149.438 91.5117C152.423 88.5272 152.675 88.2171 152.675 87.5776C152.675 86.9187 152.364 86.5699 147.888 82.1125C143.43 77.6357 143.082 77.3257 142.423 77.3257C141.783 77.3257 141.473 77.5776 138.489 80.5621L135.252 83.7792L134.477 83.2947C131.841 81.6474 128.159 80.0776 124.787 79.1474L122.849 78.6241L122.752 73.9342C122.655 69.283 122.655 69.2249 122.19 68.8567C121.764 68.5078 121.337 68.4885 115 68.4885C108.663 68.4885 108.237 68.5078 107.81 68.8567ZM119.651 76.0078C119.651 80.1357 119.671 80.4652 120.039 80.8334C120.465 81.2985 120.407 81.2792 123.14 81.9381C126.686 82.7714 130.213 84.283 133.43 86.3373C135.717 87.8102 135.601 87.8489 139.302 84.1861L142.442 81.1047L145.678 84.3412L148.896 87.5776L145.814 90.6978C142.151 94.3993 142.19 94.283 143.663 96.5699C145.678 99.7094 147.248 103.392 148.062 106.822C148.721 109.593 148.702 109.535 149.167 109.961C149.535 110.33 149.864 110.349 153.992 110.349H158.411V115V119.651H153.992C149.864 119.651 149.535 119.671 149.167 120.039C148.702 120.465 148.721 120.407 148.062 123.178C147.442 125.756 146.512 128.198 145.097 130.93L143.992 133.043L141.725 130.775L139.438 128.508L139.923 127.578C140.737 125.969 141.531 123.799 142.016 121.841C143.973 114.147 142.578 106.066 138.14 99.3799C136.706 97.2482 133.837 94.2249 131.686 92.6164C129.69 91.1047 126.182 89.283 123.818 88.4885C120.485 87.3838 119.147 87.19 114.903 87.19C111.415 87.2094 110.814 87.2482 108.876 87.7133C103.624 88.9536 99.0505 91.473 95.349 95.1357C91.0467 99.3993 88.3529 104.632 87.3645 110.737C86.9188 113.45 87.0932 118.469 87.7327 121.202C88.9343 126.299 91.2017 130.446 94.8451 134.244C98.8567 138.45 103.663 141.124 109.438 142.364C112.074 142.926 117.52 142.985 120.097 142.461C122.287 142.016 124.903 141.163 126.919 140.213L128.527 139.457L130.775 141.725L133.023 143.992L131.628 144.748C128.585 146.395 125.62 147.558 122.616 148.237C121.899 148.392 121.105 148.566 120.872 148.624C120.64 148.682 120.252 148.915 120.039 149.147C119.671 149.554 119.651 149.826 119.651 153.992V158.411H115H110.349V153.992C110.349 149.864 110.33 149.535 109.961 149.167C109.535 148.702 109.593 148.721 106.822 148.062C103.392 147.248 99.7095 145.678 96.5699 143.663C94.2831 142.19 94.3994 142.151 90.6978 145.814L87.5583 148.895L84.3219 145.659L81.1048 142.423L84.1862 139.302C87.849 135.601 87.8102 135.717 86.3374 133.43C84.3412 130.291 82.8102 126.764 81.9575 123.237C81.318 120.601 81.1242 120.078 80.6784 119.845C80.4846 119.729 78.3916 119.651 75.9691 119.651H71.5893V115V110.349H76.0079C80.1358 110.349 80.4653 110.33 80.8335 109.961C81.2986 109.535 81.2792 109.593 81.9381 106.822C82.7521 103.392 84.3219 99.7094 86.3374 96.5699C87.8102 94.283 87.849 94.3993 84.1862 90.6978L81.1048 87.5582L84.3412 84.3218L87.5777 81.1047L90.6978 84.1861C94.4188 87.8683 94.2637 87.8102 96.6474 86.2985C99.7482 84.3024 103.566 82.6939 107.248 81.8412C109.341 81.3567 109.923 81.1241 110.155 80.6784C110.271 80.4846 110.349 78.3916 110.349 75.9691V71.5892H115H119.651V76.0078ZM118.779 90.4846C121.531 90.9303 123.256 91.473 125.756 92.6939C137.733 98.5466 142.927 112.306 137.83 124.651C137.52 125.407 137.19 126.047 137.113 126.047C136.841 126.047 128.585 117.578 128.256 116.938C127.946 116.357 127.888 115.892 127.927 113.857C127.985 111.027 127.771 109.477 127.035 107.306C125.407 102.558 121.357 98.8179 116.337 97.4419C114.613 96.9575 110.349 96.9575 108.644 97.4226C106.88 97.9264 105.368 98.6241 105.136 99.0699C104.574 100.136 104.709 100.33 109.186 104.826L113.45 109.109V111.279V113.45H111.279H109.109L104.826 109.186C100.33 104.709 100.136 104.574 99.0699 105.136C98.6242 105.368 97.9265 106.88 97.4226 108.644C96.9575 110.349 96.9575 114.612 97.442 116.337C98.818 121.357 102.558 125.407 107.306 127.035C109.477 127.771 111.027 127.985 113.857 127.926C115.892 127.888 116.357 127.946 116.938 128.256C117.578 128.585 126.047 136.841 126.047 137.112C126.047 137.287 123.585 138.314 121.938 138.818C118.566 139.845 113.605 140.058 110.175 139.322C99.5932 137.074 91.88 128.837 90.3684 118.12C90.2327 117.093 90.1746 115.485 90.2521 113.857C90.7753 101.938 99.6319 92.1513 111.492 90.4071C113.295 90.1357 116.919 90.1745 118.779 90.4846ZM115.097 100.368C116.861 100.737 119.322 101.977 120.678 103.198C122.171 104.516 123.585 106.725 124.225 108.663C124.69 110.097 124.748 110.562 124.787 113.45C124.826 116.802 124.961 117.519 125.892 119.05C126.124 119.438 133.333 126.802 141.938 135.446C158.605 152.19 158.023 151.531 158.023 153.372C158.023 155.775 155.775 158.023 153.372 158.023C151.531 158.023 152.19 158.605 135.446 141.938C125.969 132.5 119.399 126.085 118.876 125.795C117.384 124.923 115.95 124.651 113.644 124.787C112.113 124.884 111.221 124.845 110.058 124.593C103.992 123.353 99.8064 117.965 100.136 111.802C100.194 110.833 100.291 109.903 100.368 109.709C100.485 109.419 101.124 109.961 104.128 112.946L107.752 116.55H111.686C116.938 116.55 116.551 116.938 116.551 111.686V107.752L112.927 104.128C109.051 100.213 109.225 100.504 110.64 100.213C111.512 100.019 113.837 100.097 115.097 100.368Z" fill="#FB6514"/><path d="M122.734 122.733C122.23 123.256 122.152 123.45 122.249 123.973C122.404 124.787 123.819 126.202 124.633 126.357C125.156 126.454 125.35 126.376 125.873 125.872C126.377 125.349 126.455 125.155 126.358 124.632C126.203 123.818 124.788 122.403 123.974 122.248C123.451 122.151 123.257 122.229 122.734 122.733Z" fill="#FB6514"/><path d="M128.178 128.178C127.926 128.43 127.791 128.818 127.791 129.283C127.791 129.98 128.159 130.368 137.248 139.476C142.791 145.038 146.957 149.069 147.326 149.225C148.605 149.787 149.787 148.604 149.225 147.325C149.07 146.957 145.039 142.79 139.477 137.228C130.368 128.159 129.981 127.79 129.283 127.79C128.818 127.79 128.43 127.926 128.178 128.178Z" fill="#FB6514"/><path d="M151.629 150.912C150.912 151.28 150.563 152.094 150.854 152.772C151.125 153.45 152.346 154.652 152.947 154.826C153.993 155.136 155.137 153.993 154.827 152.946C154.652 152.384 153.645 151.299 152.947 150.931C152.307 150.601 152.249 150.601 151.629 150.912Z" fill="#FB6514"/></svg>